# This file uses centimeters as units for non-parametric coordinates.

v -1.000000 0.000000 1.000000
v -1.000000 -0.309017 0.951057
v -1.000000 -0.587785 0.809017
v -1.000000 -0.809017 0.587785
v -1.000000 -0.951057 0.309017
v -1.000000 -1.000000 0.000000
v 1.000000 0.000000 1.000000
v 1.000000 -0.309017 0.951057
v 1.000000 -0.587785 0.809017
v 1.000000 -0.809017 0.587785
v 1.000000 -0.951057 0.309017
v 1.000000 -1.000000 0.000000
v -1.000000 11.360983 1.000000
v 1.000000 11.360983 1.000000
v -1.000000 -1.000000 -11.390724
v 1.000000 -1.000000 -11.390724
vt 0.000041 0.532746
vt 0.000041 0.519892
vt 0.000041 0.507038
vt 0.000041 0.494184
vt 0.000041 0.481330
vt 0.000041 0.468476
vt 0.082209 0.532746
vt 0.082209 0.519892
vt 0.082209 0.507038
vt 0.082209 0.494184
vt 0.082209 0.481330
vt 0.082209 0.468476
vt 0.082209 0.999501
vt 0.000041 0.999501
vt 0.000041 0.000499
vt 0.082209 0.000499
vn 0.000000 0.156435 -0.987688
vn 0.000000 0.156435 -0.987688
vn 0.000000 0.309017 -0.951057
vn 0.000000 0.309017 -0.951057
vn 0.000000 0.587785 -0.809017
vn 0.000000 0.587785 -0.809017
vn 0.000000 0.809017 -0.587785
vn 0.000000 0.809017 -0.587785
vn 0.000000 0.951057 -0.309017
vn 0.000000 0.951057 -0.309017
vn 0.000000 0.987688 -0.156434
vn 0.000000 0.987688 -0.156434
vn 0.000000 0.000000 -1.000000
vn 0.000000 0.000000 -1.000000
vn 0.000000 0.000000 -1.000000
vn 0.000000 0.000000 -1.000000
vn 0.000000 1.000000 0.000000
vn 0.000000 1.000000 0.000000
vn 0.000000 1.000000 0.000000
vn 0.000000 1.000000 0.000000
f 1/1/1 7/7/2 8/8/3 2/2/4
f 2/2/4 8/8/3 9/9/5 3/3/6
f 3/3/6 9/9/5 10/10/7 4/4/8
f 4/4/8 10/10/7 11/11/9 5/5/10
f 5/5/10 11/11/9 12/12/11 6/6/12
f 1/1/13 13/14/14 14/13/15 7/7/16
f 12/12/17 16/16/18 15/15/19 6/6/20
