# This file uses centimeters as units for non-parametric coordinates.

v -0.171558 -0.046852 2.212828
v -0.154768 -0.123610 2.220514
v -0.133258 -0.145120 2.220514
v -0.152538 -0.158219 2.212722
v -0.171830 -0.138927 2.212722
v -0.168484 -0.046852 2.034131
v -0.168484 -0.137542 2.034131
v -0.151152 -0.154871 2.034131
v -0.171558 -0.086539 2.212828
v -0.168484 -0.088283 2.034131
v -0.154768 -0.086029 2.220514
v 0.172087 -0.046852 2.212828
v 0.169013 -0.046852 2.034131
v 0.155306 -0.123610 2.220514
v 0.133807 -0.145120 2.220514
v 0.153078 -0.158219 2.212722
v 0.172359 -0.138927 2.212722
v 0.169013 -0.137542 2.034131
v 0.151692 -0.154871 2.034131
v 0.172087 -0.086539 2.212828
v 0.169013 -0.088283 2.034131
v 0.155306 -0.086029 2.220514
v -0.171420 -0.046852 2.477061
v -0.171391 -0.086348 2.477061
v -0.133120 -0.145120 2.477061
v -0.154630 -0.123610 2.477061
v -0.154630 -0.086029 2.477061
v 0.172224 -0.046852 2.477061
v 0.172198 -0.086348 2.477061
v 0.133945 -0.145120 2.477061
v 0.155443 -0.123610 2.477061
v 0.155443 -0.086029 2.477061
v -0.171558 -0.046852 2.734321
v -0.154630 -0.123610 2.720422
v -0.133120 -0.145120 2.720422
v -0.152538 -0.158219 2.734427
v -0.171830 -0.138927 2.734427
v -0.172363 -0.046852 2.913017
v -0.172363 -0.137542 2.913017
v -0.151152 -0.154871 2.913017
v -0.171558 -0.086539 2.734321
v -0.172363 -0.088283 2.913017
v -0.154630 -0.086029 2.720422
v 0.172087 -0.046852 2.734321
v 0.169013 -0.046852 2.913017
v 0.155444 -0.123610 2.720422
v 0.133945 -0.145120 2.720422
v 0.153078 -0.158219 2.734427
v 0.172359 -0.138927 2.734427
v 0.169013 -0.137542 2.913017
v 0.151692 -0.154871 2.913017
v 0.172087 -0.086539 2.734321
v 0.169013 -0.088283 2.913017
v 0.155444 -0.086029 2.720422
vt 0.265490 0.462611
vt 0.253350 0.456138
vt 0.282555 0.404110
vt 0.294027 0.410591
vt 0.231256 0.444318
vt 0.261278 0.393204
vt 0.267630 0.396969
vt 0.238730 0.448395
vt 0.145009 0.321130
vt 0.112436 0.370728
vt 0.017756 0.310803
vt 0.048613 0.260130
vt 0.156100 0.328211
vt 0.123870 0.378421
vt 0.144717 0.392380
vt 0.137592 0.387697
vt 0.169414 0.338025
vt 0.175718 0.341855
vt 0.088372 0.397966
vt 0.003441 0.344161
vt 0.001657 0.336226
vt 0.096311 0.396180
vt 0.010404 0.322417
vt 0.105067 0.382357
vt 0.171700 0.331098
vt 0.160433 0.322948
vt 0.182559 0.338384
vt 0.261124 0.385532
vt 0.272667 0.391692
vt 0.285161 0.397806
vt 0.699064 0.072674
vt 0.541023 0.303147
vt 0.529804 0.296508
vt 0.687323 0.066128
vt 0.723802 0.088391
vt 0.566236 0.314601
vt 0.556180 0.308357
vt 0.714842 0.082791
vt 0.545400 0.301973
vt 0.703513 0.076563
vt 0.435625 0.232251
vt 0.592876 0.001992
vt 0.830184 0.164990
vt 0.670463 0.394252
vt 0.660128 0.386233
vt 0.819837 0.156729
vt 0.805118 0.145718
vt 0.649989 0.373809
vt 0.640703 0.366461
vt 0.796953 0.139218
vt 0.814761 0.154090
vt 0.659737 0.381656
vt 0.097990 0.284661
vt 0.095152 0.225403
vt 0.108304 0.224595
vt 0.111741 0.284181
vt 0.137776 0.283120
vt 0.128296 0.283674
vt 0.124874 0.224799
vt 0.132263 0.224118
vt 0.268196 0.207993
vt 0.381363 0.193584
vt 0.389121 0.252395
vt 0.276690 0.266720
vt 0.263069 0.268858
vt 0.255136 0.209696
vt 0.238217 0.272752
vt 0.231543 0.213868
vt 0.238911 0.213029
vt 0.246693 0.271492
vt 0.286955 0.301589
vt 0.280520 0.296607
vt 0.392938 0.282247
vt 0.386683 0.288843
vt 0.278443 0.280375
vt 0.390863 0.266032
vt 0.239548 0.204833
vt 0.253094 0.202016
vt 0.226717 0.206768
vt 0.135638 0.216149
vt 0.122683 0.216799
vt 0.108859 0.216595
vt 0.269917 0.680616
vt 0.260000 0.672099
vt 0.169094 0.603293
vt 0.397615 0.774118
vt 0.386690 0.766853
vt 0.288903 0.700708
vt 0.279780 0.693184
vt 0.270281 0.685038
vt 0.371750 0.761149
vt 0.361833 0.754695
vt 0.382278 0.767889
vt 0.102518 0.903230
vt 0.092578 0.894189
vt 0.126563 0.920048
vt 0.118386 0.913343
vt 0.108870 0.904589
vt 0.001657 0.825152
vt 0.231903 0.998008
vt 0.220765 0.990848
vt 0.206884 0.978800
vt 0.198112 0.973125
vt 0.217904 0.985267
vn -0.999852 0.000000 -0.017202
vn -0.999852 0.000000 -0.017202
vn -0.999852 0.000000 -0.017202
vn -0.999852 0.000000 -0.017202
vn -0.706974 -0.706991 -0.018739
vn -0.706974 -0.706991 -0.018739
vn -0.706974 -0.706991 -0.018739
vn -0.706974 -0.706991 -0.018739
vn -0.999835 0.002696 -0.017972
vn -0.999835 0.002696 -0.017972
vn -0.999835 0.002696 -0.017972
vn -0.999835 0.002696 -0.017972
vn 0.000000 1.000000 -0.000005
vn 0.000000 1.000000 -0.000005
vn 0.000000 1.000000 -0.000005
vn 0.000000 1.000000 -0.000005
vn 0.999852 0.000000 -0.017194
vn 0.999852 0.000000 -0.017194
vn 0.999852 0.000000 -0.017194
vn 0.999852 0.000000 -0.017194
vn 0.707141 -0.706824 -0.018733
vn 0.707141 -0.706824 -0.018733
vn 0.707141 -0.706824 -0.018733
vn 0.707141 -0.706824 -0.018733
vn 0.999835 0.002720 -0.017964
vn 0.999835 0.002720 -0.017964
vn 0.999835 0.002720 -0.017964
vn 0.999835 0.002720 -0.017964
vn 0.000000 0.000000 -1.000000
vn 0.000000 0.000000 -1.000000
vn 0.000000 0.000000 -1.000000
vn 0.000000 0.000000 -1.000000
vn 0.000000 0.000000 -1.000000
vn 0.000000 0.000000 -1.000000
vn 0.000000 0.000000 -1.000000
vn 0.000000 0.000000 -1.000000
vn 0.000000 0.000000 -1.000000
vn 0.000000 0.000000 -1.000000
vn 0.000000 0.000000 -1.000000
vn 0.000000 0.000000 -1.000000
vn 0.000000 -0.999824 -0.018743
vn 0.000000 -0.999824 -0.018743
vn 0.000000 -0.999824 -0.018743
vn 0.000000 -0.999824 -0.018743
vn 0.416047 0.000190 0.909343
vn 0.416047 0.000190 0.909343
vn 0.416047 0.000190 0.909343
vn 0.416047 0.000190 0.909343
vn 0.227906 -0.227791 0.946663
vn 0.227906 -0.227791 0.946663
vn 0.227906 -0.227791 0.946663
vn 0.227906 -0.227791 0.946663
vn 0.000000 -0.511209 0.859456
vn 0.000000 -0.511209 0.859456
vn 0.000000 -0.511209 0.859456
vn 0.000000 -0.511210 0.859456
vn -0.227797 -0.227811 0.946684
vn -0.227797 -0.227811 0.946684
vn -0.227797 -0.227811 0.946684
vn -0.227797 -0.227811 0.946684
vn -0.415863 0.000198 0.909427
vn -0.415863 0.000198 0.909427
vn -0.415863 0.000198 0.909427
vn -0.415863 0.000198 0.909427
vn -1.000000 -0.000505 0.000024
vn -1.000000 -0.000505 0.000024
vn -1.000000 -0.000505 0.000024
vn -1.000000 -0.000505 0.000024
vn -0.707107 -0.707106 0.000000
vn -0.707107 -0.707106 0.000000
vn -0.707107 -0.707106 0.000000
vn -0.707107 -0.707106 0.000000
vn -1.000000 0.000000 -0.000000
vn -1.000000 0.000000 -0.000000
vn -1.000000 0.000000 -0.000000
vn -1.000000 0.000000 -0.000000
vn 0.000000 1.000000 0.000000
vn 0.000000 1.000000 0.000000
vn 0.000000 1.000000 0.000000
vn 0.000000 1.000000 0.000000
vn 1.000000 -0.000425 0.000021
vn 1.000000 -0.000425 0.000021
vn 1.000000 -0.000425 0.000021
vn 1.000000 -0.000425 0.000021
vn 0.707282 -0.706932 0.000000
vn 0.707282 -0.706932 0.000000
vn 0.707282 -0.706932 0.000000
vn 0.707282 -0.706932 0.000000
vn 1.000000 0.000000 0.000000
vn 1.000000 0.000000 0.000000
vn 1.000000 0.000000 0.000000
vn 1.000000 0.000000 0.000000
vn -0.022806 -0.999740 0.000152
vn -0.022806 -0.999740 0.000152
vn -0.022806 -0.999740 0.000152
vn -0.022806 -0.999740 0.000152
vn 0.000000 -1.000000 0.000000
vn 0.000000 -1.000000 0.000000
vn 0.000000 -1.000000 0.000000
vn 0.000000 -1.000000 0.000000
vn 0.022799 -0.999740 0.000151
vn 0.022799 -0.999740 0.000151
vn 0.022799 -0.999740 0.000151
vn 0.022799 -0.999740 0.000151
vn -0.999990 0.000000 -0.004508
vn -0.999990 0.000000 -0.004508
vn -0.999990 0.000000 -0.004508
vn -0.999990 0.000000 -0.004508
vn -0.670630 -0.741704 0.011432
vn -0.670630 -0.741704 0.011432
vn -0.670630 -0.741704 0.011432
vn -0.670630 -0.741704 0.011432
vn -0.999989 0.002696 -0.003744
vn -0.999989 0.002696 -0.003744
vn -0.999989 0.002696 -0.003744
vn -0.999989 0.002696 -0.003744
vn 0.000000 1.000000 0.000004
vn 0.000000 1.000000 0.000004
vn 0.000000 1.000000 0.000004
vn 0.000000 1.000000 0.000004
vn 0.999852 0.000000 0.017194
vn 0.999852 0.000000 0.017194
vn 0.999852 0.000000 0.017194
vn 0.999852 0.000000 0.017194
vn 0.707141 -0.706824 0.018733
vn 0.707141 -0.706824 0.018733
vn 0.707141 -0.706824 0.018733
vn 0.707141 -0.706824 0.018733
vn 0.999835 0.002720 0.017964
vn 0.999835 0.002720 0.017964
vn 0.999835 0.002720 0.017964
vn 0.999835 0.002720 0.017964
vn 0.000000 0.000000 1.000000
vn 0.000000 0.000000 1.000000
vn 0.000000 0.000000 1.000000
vn 0.000000 0.000000 1.000000
vn 0.000000 0.000000 1.000000
vn 0.000000 0.000000 1.000000
vn 0.000000 0.000000 1.000000
vn 0.000000 0.000000 1.000000
vn 0.000000 0.000000 1.000000
vn 0.000000 0.000000 1.000000
vn 0.000000 0.000000 1.000000
vn 0.000000 0.000000 1.000000
vn 0.000000 -0.999824 0.018743
vn 0.000000 -0.999824 0.018743
vn 0.000000 -0.999824 0.018743
vn 0.000000 -0.999824 0.018743
vn 0.639638 0.001026 -0.768675
vn 0.639638 0.001026 -0.768675
vn 0.639638 0.001026 -0.768675
vn 0.639638 0.001026 -0.768675
vn 0.370285 -0.370089 -0.852011
vn 0.370285 -0.370089 -0.852011
vn 0.370285 -0.370089 -0.852011
vn 0.370285 -0.370089 -0.852011
vn 0.000000 -0.730331 -0.683093
vn 0.000000 -0.730331 -0.683093
vn 0.000000 -0.730331 -0.683093
vn 0.000000 -0.730331 -0.683093
vn -0.367824 -0.367833 -0.854052
vn -0.367824 -0.367832 -0.854052
vn -0.367824 -0.367832 -0.854052
vn -0.367824 -0.367832 -0.854052
vn -0.633241 0.001008 -0.773954
vn -0.633241 0.001008 -0.773954
vn -0.633241 0.001008 -0.773954
vn -0.633241 0.001008 -0.773954
vn -1.000000 -0.000266 -0.000340
vn -1.000000 -0.000266 -0.000340
vn -1.000000 -0.000266 -0.000340
vn -1.000000 -0.000266 -0.000340
vn -0.707111 -0.707102 -0.000118
vn -0.707111 -0.707102 -0.000118
vn -0.707111 -0.707102 -0.000118
vn -0.707111 -0.707102 -0.000118
vn -1.000000 0.000000 -0.000167
vn -1.000000 0.000000 -0.000167
vn -1.000000 0.000000 -0.000167
vn -1.000000 0.000000 -0.000167
vn 0.000000 1.000000 0.000000
vn 0.000000 1.000000 0.000000
vn 0.000000 1.000000 0.000000
vn 0.000000 1.000000 0.000000
vn 1.000000 -0.000240 0.000319
vn 1.000000 -0.000240 0.000319
vn 1.000000 -0.000240 0.000319
vn 1.000000 -0.000240 0.000319
vn 0.707305 -0.706909 0.000118
vn 0.707305 -0.706909 0.000118
vn 0.707305 -0.706909 0.000118
vn 0.707305 -0.706909 0.000118
vn 1.000000 0.000000 0.000167
vn 1.000000 0.000000 0.000167
vn 1.000000 0.000000 0.000167
vn 1.000000 0.000000 0.000167
vn -0.026711 -0.999643 -0.000083
vn -0.026711 -0.999643 -0.000083
vn -0.026711 -0.999643 -0.000083
vn -0.026711 -0.999643 -0.000083
vn 0.000000 -1.000000 0.000000
vn 0.000000 -1.000000 0.000000
vn 0.000000 -1.000000 0.000000
vn 0.000000 -1.000000 0.000000
vn 0.026483 -0.999649 -0.000070
vn 0.026483 -0.999649 -0.000070
vn 0.026483 -0.999649 -0.000070
vn 0.026483 -0.999649 -0.000070
f 6/1/1 10/2/2 9/3/3 1/4/4
f 8/5/5 4/6/6 5/7/7 7/8/8
f 10/2/9 7/8/10 5/7/11 9/3/12
f 12/9/13 13/10/14 6/11/15 1/12/16
f 13/10/17 12/9/18 20/13/19 21/14/20
f 19/15/21 18/16/22 17/17/23 16/18/24
f 21/14/25 20/13/26 17/17/27 18/16/28
f 19/19/29 8/20/30 7/21/31 18/22/32
f 18/22/33 7/21/34 10/23/35 21/24/36
f 21/24/37 10/23/38 6/11/39 13/10/40
f 16/18/41 4/6/42 8/5/43 19/15/44
f 14/25/45 17/17/46 20/13/47 22/26/48
f 15/27/49 16/18/50 17/17/51 14/25/52
f 3/28/53 4/6/54 16/18/55 15/27/56
f 4/6/57 3/28/58 2/29/59 5/7/60
f 5/7/61 2/29/62 11/30/63 9/3/64
f 9/31/65 24/32/66 23/33/67 1/34/68
f 3/35/69 25/36/70 26/37/71 2/38/72
f 2/38/73 26/37/74 27/39/75 11/40/76
f 1/34/77 23/33/78 28/41/79 12/42/80
f 12/43/81 28/44/82 29/45/83 20/46/84
f 14/47/85 31/48/86 30/49/87 15/50/88
f 22/51/89 32/52/90 31/48/91 14/47/92
f 20/46/93 29/45/94 32/52/95 22/51/96
f 15/50/97 30/49/98 25/36/99 3/35/100
f 11/40/101 27/39/102 24/32/103 9/31/104
f 38/53/105 33/54/106 41/55/107 42/56/108
f 40/57/109 39/58/110 37/59/111 36/60/112
f 42/56/113 41/55/114 37/59/115 39/58/116
f 44/61/117 33/62/118 38/63/119 45/64/120
f 45/64/121 53/65/122 52/66/123 44/61/124
f 51/67/125 48/68/126 49/69/127 50/70/128
f 53/65/129 50/70/130 49/69/131 52/66/132
f 51/71/133 50/72/134 39/73/135 40/74/136
f 50/72/137 53/75/138 42/76/139 39/73/140
f 53/75/141 45/64/142 38/63/143 42/76/144
f 48/68/145 51/67/146 40/57/147 36/60/148
f 46/77/149 54/78/150 52/66/151 49/69/152
f 47/79/153 46/77/154 49/69/155 48/68/156
f 35/80/157 47/79/158 48/68/159 36/60/160
f 36/60/161 37/59/162 34/81/163 35/80/164
f 37/59/165 41/55/166 43/82/167 34/81/168
f 24/83/169 41/94/170 33/95/171 23/84/172
f 25/88/173 35/96/174 34/97/175 26/89/176
f 26/89/177 34/97/178 43/98/179 27/90/180
f 23/84/181 33/95/182 44/99/183 28/85/184
f 28/86/185 44/100/186 52/101/187 29/87/188
f 31/91/189 46/102/190 47/103/191 30/92/192
f 32/93/193 54/104/194 46/102/195 31/91/196
f 29/87/197 52/101/198 54/104/199 32/93/200
f 30/92/201 47/103/202 35/96/203 25/88/204
f 27/90/205 43/98/206 41/94/207 24/83/208
