# This file uses centimeters as units for non-parametric coordinates.

v -0.051887 -0.277797 -0.155774
v -0.068233 -0.234150 -0.155774
v -0.007071 -0.297533 -0.155774
v -0.007071 -0.171412 -0.155774
v -0.051524 -0.188712 -0.155774
v 0.054086 -0.234150 -0.155774
v 0.037740 -0.277797 -0.155774
v 0.037377 -0.188712 -0.155774
v -0.046815 -0.273003 -0.201447
v -0.051887 -0.277797 -0.194733
v -0.068233 -0.234150 -0.194733
v -0.061427 -0.234126 -0.201447
v -0.007071 -0.290487 -0.201447
v -0.007071 -0.297533 -0.194733
v -0.051524 -0.188712 -0.194733
v -0.045497 -0.191722 -0.201447
v -0.007071 -0.171412 -0.194733
v -0.007071 -0.178063 -0.201447
v 0.037740 -0.277797 -0.194733
v 0.032670 -0.273003 -0.201447
v 0.047278 -0.234126 -0.201447
v 0.054086 -0.234150 -0.194733
v 0.031352 -0.191722 -0.201447
v 0.037377 -0.188712 -0.194733
v 0.013921 -0.180352 -0.201451
v 0.017213 -0.175075 -0.155774
v 0.017213 -0.175075 -0.194733
v 0.043618 -0.210983 -0.201451
v 0.050626 -0.209352 -0.155774
v 0.050626 -0.209352 -0.194733
v 0.044335 -0.255391 -0.201451
v 0.050824 -0.258023 -0.155774
v 0.050824 -0.258023 -0.194733
v 0.014642 -0.286184 -0.201451
v 0.017411 -0.292653 -0.155774
v 0.017411 -0.292653 -0.194733
v -0.028785 -0.286184 -0.201451
v -0.031558 -0.292653 -0.155774
v -0.031558 -0.292653 -0.194733
v -0.058482 -0.255391 -0.201451
v -0.064971 -0.258023 -0.155774
v -0.064971 -0.258023 -0.194733
v -0.057761 -0.210983 -0.201451
v -0.064773 -0.209352 -0.155774
v -0.064773 -0.209352 -0.194733
v -0.028068 -0.180352 -0.201451
v -0.031358 -0.175075 -0.155774
v -0.031358 -0.175075 -0.194733
v -0.007071 -0.275775 -0.201448
v -0.023103 -0.272598 -0.201451
v -0.036414 -0.262867 -0.201448
v -0.045026 -0.249864 -0.201451
v -0.047202 -0.234165 -0.201448
v -0.044496 -0.217079 -0.201451
v 0.022267 -0.262867 -0.201448
v 0.008958 -0.272598 -0.201451
v -0.035441 -0.202859 -0.201448
v -0.022573 -0.194465 -0.201451
v -0.007071 -0.192775 -0.201448
v 0.008424 -0.194465 -0.201451
v 0.033051 -0.234165 -0.201448
v 0.030881 -0.249864 -0.201451
v 0.021295 -0.202859 -0.201448
v 0.030351 -0.217079 -0.201451
v -0.007071 -0.275775 -0.148578
v -0.023103 -0.272598 -0.148581
v -0.036414 -0.262867 -0.148578
v -0.045026 -0.249864 -0.148581
v -0.047202 -0.234165 -0.148578
v -0.044496 -0.217079 -0.148581
v 0.022267 -0.262867 -0.148578
v 0.008958 -0.272598 -0.148581
v -0.035441 -0.202859 -0.148578
v -0.022573 -0.194465 -0.148581
v -0.007071 -0.192775 -0.148578
v 0.008424 -0.194465 -0.148581
v 0.033051 -0.234165 -0.148578
v 0.030881 -0.249864 -0.148581
v 0.021295 -0.202859 -0.148578
v 0.030351 -0.217079 -0.148581
v -0.272811 0.821760 0.201451
v -0.272811 -1.000000 0.201451
v 0.272811 0.821760 0.201451
v 0.272811 -1.000000 0.201451
v 0.272811 0.409918 0.201451
v -0.272811 0.409918 0.201451
v -0.272811 -1.000000 -0.113481
v -0.226779 -1.000000 -0.159512
v -0.226790 0.434981 -0.159213
v -0.272811 0.424253 -0.113198
v 0.272811 -1.000000 -0.113481
v 0.226781 -1.000000 -0.159512
v 0.226790 0.434981 -0.159213
v 0.272811 0.424253 -0.113198
v -0.224936 0.796505 0.101521
v -0.271689 0.819978 0.146769
v 0.271688 0.819979 0.146767
v 0.224931 0.796505 0.101521
vt 0.267737 0.045336
vt 0.273823 0.038811
vt 0.276018 0.042230
vt 0.270184 0.047783
vt 0.262657 0.052255
vt 0.265572 0.054313
vt 0.261690 0.060718
vt 0.258576 0.058983
vt 0.255251 0.066241
vt 0.258619 0.067684
vt 0.255609 0.075458
vt 0.252266 0.073989
vt 0.267698 0.150374
vt 0.262622 0.143451
vt 0.265538 0.141394
vt 0.270145 0.147927
vt 0.250227 0.081791
vt 0.253459 0.083230
vt 0.252324 0.090414
vt 0.249017 0.089713
vt 0.248720 0.097847
vt 0.252325 0.097849
vt 0.252317 0.105281
vt 0.249010 0.105980
vt 0.258545 0.136720
vt 0.255224 0.129460
vt 0.258593 0.128018
vt 0.261660 0.134987
vt 0.252245 0.121708
vt 0.250212 0.113904
vt 0.253445 0.112468
vt 0.255588 0.120243
vt 0.245915 0.052194
vt 0.250672 0.044305
vt 0.256472 0.036525
vt 0.262567 0.029346
vt 0.238534 0.069696
vt 0.241913 0.060623
vt 0.234705 0.088307
vt 0.236116 0.078925
vt 0.245879 0.143501
vt 0.241882 0.135068
vt 0.256428 0.159178
vt 0.250632 0.151394
vt 0.238509 0.125990
vt 0.236099 0.116758
vt 0.234696 0.107374
vt 0.234263 0.097841
vt 0.262518 0.166359
vt 0.273780 0.156900
vt 0.275977 0.153481
vt 0.278284 0.047043
vt 0.273988 0.051767
vt 0.269942 0.057472
vt 0.266402 0.063375
vt 0.263476 0.069743
vt 0.260834 0.076831
vt 0.269910 0.138238
vt 0.273952 0.143944
vt 0.258954 0.084071
vt 0.257921 0.090932
vt 0.257733 0.097851
vt 0.257915 0.104768
vt 0.263452 0.125962
vt 0.266374 0.132332
vt 0.258941 0.111631
vt 0.260815 0.118873
vt 0.278245 0.148669
vt 0.293633 0.058528
vt 0.289989 0.063187
vt 0.286583 0.067819
vt 0.283851 0.072333
vt 0.281568 0.077108
vt 0.279561 0.082523
vt 0.286558 0.127900
vt 0.289960 0.132532
vt 0.278154 0.087888
vt 0.277430 0.092796
vt 0.277212 0.097860
vt 0.277425 0.102922
vt 0.281549 0.118609
vt 0.283829 0.123385
vt 0.278145 0.107832
vt 0.279547 0.113197
vt 0.293601 0.137192
vt 0.651409 0.026232
vt 0.449527 0.022874
vt 0.447587 0.139400
vt 0.462869 0.156849
vt 0.633645 0.159706
vt 0.649470 0.142759
vt 0.699860 0.854993
vt 0.904688 0.883231
vt 0.928880 0.729025
vt 0.731725 0.703623
vt 0.985828 0.206721
vt 0.783965 0.182054
vt 0.433650 0.163133
vt 0.442424 0.686813
vt 0.456792 0.686270
vt 0.415221 0.856292
vt 0.450717 0.849103
vt 0.613140 0.687623
vt 0.625282 0.688476
vt 0.663864 0.165103
vt 0.626049 0.848619
vt 0.666442 0.855937
vt 0.389771 0.858925
vt 0.333270 0.704487
vt 0.314732 0.171072
vt 0.437497 0.888514
vt 0.639407 0.887970
vt 0.638946 0.867654
vt 0.437867 0.868199
vn -0.277338 -0.631824 -0.723797
vn -0.278516 -0.631316 -0.723788
vn 0.000000 -0.690636 -0.723202
vn 0.000000 -0.690636 -0.723202
vn -0.499467 -0.481395 -0.720272
vn -0.647853 -0.245164 -0.721236
vn -0.649168 -0.241843 -0.721175
vn -0.499092 -0.481788 -0.720269
vn -0.695847 0.006619 -0.718160
vn -0.651835 0.232016 -0.721997
vn -0.646236 0.248955 -0.721388
vn -0.695802 0.007409 -0.718195
vn 0.277334 -0.631824 -0.723798
vn 0.278509 -0.631317 -0.723790
vn 0.499091 -0.481788 -0.720270
vn 0.499466 -0.481395 -0.720272
vn -0.527421 0.481407 -0.700053
vn -0.270293 0.681180 -0.680394
vn -0.243085 0.690877 -0.680880
vn -0.502029 0.515170 -0.694670
vn 0.000000 0.735850 -0.677144
vn 0.270295 0.681172 -0.680401
vn 0.243069 0.690876 -0.680887
vn 0.000000 0.735850 -0.677144
vn 0.647843 -0.245154 -0.721248
vn 0.649159 -0.241832 -0.721187
vn 0.695781 0.007408 -0.718215
vn 0.695826 0.006618 -0.718180
vn 0.651829 0.232007 -0.722005
vn 0.646232 0.248945 -0.721395
vn 0.502021 0.515174 -0.694673
vn 0.527416 0.481413 -0.700053
vn -0.936482 -0.350717 0.000000
vn -0.936482 -0.350717 0.000000
vn -0.719627 -0.694361 0.000000
vn -0.719627 -0.694361 0.000000
vn -0.403060 -0.915174 0.000000
vn -0.403060 -0.915174 0.000000
vn 0.000000 -1.000000 0.000000
vn 0.000000 -1.000000 0.000000
vn -0.938560 0.345116 0.000000
vn -0.938560 0.345116 0.000000
vn -0.999992 0.004070 0.000000
vn -0.999992 0.004070 0.000000
vn -0.362696 0.931908 0.000000
vn -0.362696 0.931908 0.000000
vn -0.716066 0.698033 0.000000
vn -0.716066 0.698033 0.000000
vn 0.936481 -0.350719 0.000000
vn 0.936481 -0.350719 0.000000
vn 0.999992 0.004070 0.000000
vn 0.999992 0.004070 0.000000
vn 0.403054 -0.915176 0.000000
vn 0.403054 -0.915176 0.000000
vn 0.719627 -0.694361 0.000000
vn 0.719627 -0.694361 0.000000
vn 0.938560 0.345117 0.000000
vn 0.938560 0.345117 0.000000
vn 0.716065 0.698034 0.000000
vn 0.716065 0.698034 0.000000
vn 0.362690 0.931910 0.000000
vn 0.362690 0.931910 0.000000
vn 0.000000 1.000000 0.000000
vn 0.000000 1.000000 0.000000
vn 0.716065 0.698034 0.000000
vn 0.716065 0.698034 0.000000
vn 0.362690 0.931910 0.000000
vn 0.362690 0.931910 0.000000
vn 0.243069 0.690876 -0.680887
vn 0.270295 0.681172 -0.680401
vn 0.527416 0.481413 -0.700053
vn 0.502021 0.515174 -0.694673
vn 0.999992 0.004070 0.000000
vn 0.999992 0.004070 0.000000
vn 0.938560 0.345117 0.000000
vn 0.938560 0.345117 0.000000
vn 0.695781 0.007408 -0.718215
vn 0.646232 0.248945 -0.721395
vn 0.651829 0.232007 -0.722005
vn 0.695826 0.006618 -0.718180
vn 0.719627 -0.694361 0.000000
vn 0.719627 -0.694361 0.000000
vn 0.936481 -0.350719 0.000000
vn 0.936481 -0.350719 0.000000
vn 0.499091 -0.481788 -0.720270
vn 0.649159 -0.241832 -0.721187
vn 0.647843 -0.245154 -0.721248
vn 0.499466 -0.481395 -0.720272
vn 0.000000 -1.000000 0.000000
vn 0.000000 -1.000000 0.000000
vn 0.403054 -0.915176 0.000000
vn 0.403054 -0.915176 0.000000
vn 0.000000 -0.690636 -0.723202
vn 0.278509 -0.631317 -0.723790
vn 0.277334 -0.631824 -0.723798
vn 0.000000 -0.690636 -0.723202
vn -0.719627 -0.694361 0.000000
vn -0.719627 -0.694361 0.000000
vn -0.403060 -0.915174 0.000000
vn -0.403060 -0.915174 0.000000
vn -0.499092 -0.481788 -0.720269
vn -0.278516 -0.631316 -0.723788
vn -0.277338 -0.631824 -0.723797
vn -0.499467 -0.481395 -0.720272
vn -0.999992 0.004070 0.000000
vn -0.999992 0.004070 0.000000
vn -0.936482 -0.350717 0.000000
vn -0.936482 -0.350717 0.000000
vn -0.649168 -0.241843 -0.721175
vn -0.647853 -0.245164 -0.721236
vn -0.695847 0.006619 -0.718160
vn -0.695802 0.007409 -0.718195
vn -0.716066 0.698033 0.000000
vn -0.716066 0.698033 0.000000
vn -0.938560 0.345116 0.000000
vn -0.938560 0.345116 0.000000
vn -0.646236 0.248955 -0.721388
vn -0.651835 0.232016 -0.721997
vn -0.527421 0.481407 -0.700053
vn -0.502029 0.515170 -0.694670
vn 0.000000 1.000000 0.000000
vn 0.000000 1.000000 0.000000
vn -0.362696 0.931908 0.000000
vn -0.362696 0.931908 0.000000
vn -0.243085 0.690877 -0.680880
vn -0.270293 0.681180 -0.680394
vn 0.000000 0.735850 -0.677144
vn 0.000000 0.735850 -0.677144
vn 0.000174 -0.000035 -1.000000
vn 0.000174 -0.000035 -1.000000
vn 0.000174 -0.000035 -1.000000
vn 0.000174 -0.000035 -1.000000
vn 0.000105 -0.000157 -1.000000
vn 0.000105 -0.000157 -1.000000
vn 0.000105 -0.000157 -1.000000
vn 0.000105 -0.000157 -1.000000
vn -0.000037 -0.000166 -1.000000
vn -0.000037 -0.000166 -1.000000
vn -0.000037 -0.000166 -1.000000
vn -0.000037 -0.000166 -1.000000
vn 0.000151 0.000100 -1.000000
vn 0.000151 0.000100 -1.000000
vn 0.000151 0.000100 -1.000000
vn 0.000151 0.000100 -1.000000
vn -0.000163 -0.000100 -1.000000
vn -0.000163 -0.000100 -1.000000
vn -0.000163 -0.000100 -1.000000
vn -0.000163 -0.000100 -1.000000
vn -0.000187 0.000035 -1.000000
vn -0.000187 0.000035 -1.000000
vn -0.000187 0.000035 -1.000000
vn -0.000187 0.000035 -1.000000
vn 0.000034 0.000182 -1.000000
vn 0.000034 0.000182 -1.000000
vn 0.000034 0.000182 -1.000000
vn 0.000034 0.000182 -1.000000
vn -0.000109 0.000140 -1.000000
vn -0.000109 0.000140 -1.000000
vn -0.000109 0.000140 -1.000000
vn -0.000109 0.000140 -1.000000
vn 0.000160 -0.000100 -1.000000
vn 0.000160 -0.000100 -1.000000
vn 0.000160 -0.000100 -1.000000
vn 0.000160 -0.000100 -1.000000
vn 0.000038 -0.000166 -1.000000
vn 0.000038 -0.000166 -1.000000
vn 0.000038 -0.000166 -1.000000
vn 0.000038 -0.000166 -1.000000
vn -0.000103 -0.000157 -1.000000
vn -0.000103 -0.000157 -1.000000
vn -0.000103 -0.000157 -1.000000
vn -0.000103 -0.000157 -1.000000
vn -0.000178 -0.000035 -1.000000
vn -0.000178 -0.000035 -1.000000
vn -0.000178 -0.000035 -1.000000
vn -0.000178 -0.000035 -1.000000
vn -0.000147 0.000100 -1.000000
vn -0.000147 0.000100 -1.000000
vn -0.000147 0.000100 -1.000000
vn -0.000147 0.000100 -1.000000
vn -0.000033 0.000182 -1.000000
vn -0.000033 0.000182 -1.000000
vn -0.000033 0.000182 -1.000000
vn -0.000033 0.000182 -1.000000
vn 0.000110 0.000140 -1.000000
vn 0.000110 0.000140 -1.000000
vn 0.000110 0.000140 -1.000000
vn 0.000110 0.000140 -1.000000
vn 0.000187 0.000035 -1.000000
vn 0.000187 0.000035 -1.000000
vn 0.000187 0.000035 -1.000000
vn 0.000187 0.000035 -1.000000
vn 0.194394 0.980924 0.000000
vn 0.194394 0.980924 0.000000
vn 0.194394 0.980924 0.000000
vn 0.194394 0.980924 0.000000
vn 0.833709 0.552203 0.000000
vn 0.833709 0.552203 0.000000
vn 0.833709 0.552203 0.000000
vn 0.833710 0.552203 0.000000
vn 0.987702 -0.156349 0.000000
vn 0.987702 -0.156349 0.000000
vn 0.987702 -0.156349 0.000000
vn 0.987702 -0.156349 0.000000
vn -0.590233 0.807233 0.000000
vn -0.590233 0.807233 0.000000
vn -0.590233 0.807233 0.000000
vn -0.590233 0.807233 0.000000
vn 0.546355 -0.837554 0.000000
vn 0.546355 -0.837554 0.000000
vn 0.546355 -0.837554 0.000000
vn 0.546355 -0.837554 0.000000
vn -0.108389 -0.994109 0.000000
vn -0.108389 -0.994109 0.000000
vn -0.108389 -0.994109 0.000000
vn -0.108389 -0.994109 0.000000
vn -0.990561 0.137074 0.000000
vn -0.990561 0.137074 0.000000
vn -0.990561 0.137074 0.000000
vn -0.990561 0.137074 0.000000
vn -0.843495 -0.537137 0.000000
vn -0.843495 -0.537137 0.000000
vn -0.843495 -0.537137 0.000000
vn -0.843495 -0.537137 0.000000
vn -0.546322 -0.837575 0.000000
vn -0.546322 -0.837575 0.000000
vn -0.546322 -0.837575 0.000000
vn -0.546322 -0.837575 0.000000
vn -0.987712 -0.156286 0.000000
vn -0.987712 -0.156286 0.000000
vn -0.987712 -0.156286 0.000000
vn -0.987712 -0.156286 0.000000
vn -0.833676 0.552254 0.000000
vn -0.833676 0.552254 0.000000
vn -0.833676 0.552253 0.000000
vn -0.833676 0.552254 0.000000
vn -0.194368 0.980929 0.000000
vn -0.194367 0.980929 0.000000
vn -0.194367 0.980929 0.000000
vn -0.194367 0.980929 0.000000
vn 0.590200 0.807257 0.000000
vn 0.590200 0.807257 0.000000
vn 0.590200 0.807257 0.000000
vn 0.590200 0.807257 0.000000
vn 0.990551 0.137144 0.000000
vn 0.990551 0.137144 0.000000
vn 0.990551 0.137144 0.000000
vn 0.990551 0.137144 0.000000
vn 0.843556 -0.537042 0.000000
vn 0.843556 -0.537042 0.000000
vn 0.843556 -0.537042 0.000000
vn 0.843556 -0.537042 0.000000
vn 0.108381 -0.994110 0.000000
vn 0.108381 -0.994109 0.000000
vn 0.108381 -0.994110 0.000000
vn 0.108381 -0.994109 0.000000
vn 0.000000 -1.000000 0.000000
vn 0.000000 -1.000000 0.000000
vn 0.000000 -1.000000 0.000000
vn 0.000000 -1.000000 0.000000
vn 0.000000 -1.000000 0.000000
vn 0.000000 -1.000000 0.000000
vn 0.000000 0.000000 1.000000
vn 0.000000 0.000000 1.000000
vn 0.000000 0.000000 1.000000
vn 0.000000 0.000000 1.000000
vn 0.000000 0.000000 1.000000
vn 0.000000 0.000000 1.000000
vn 0.000000 0.000000 1.000000
vn 0.000000 0.000000 1.000000
vn -0.707106 0.000243 -0.707107
vn -0.713743 0.133141 -0.687636
vn -0.713744 0.133366 -0.687593
vn -0.707106 0.000243 -0.707107
vn -0.713743 0.133141 -0.687636
vn -0.709365 0.156314 -0.687290
vn -0.709365 0.156347 -0.687282
vn -0.713744 0.133366 -0.687593
vn 0.707106 0.000243 -0.707108
vn 0.713739 0.133369 -0.687597
vn 0.713738 0.133144 -0.687641
vn 0.707106 0.000243 -0.707108
vn 0.713739 0.133369 -0.687597
vn 0.709352 0.156349 -0.687296
vn 0.709351 0.156316 -0.687304
vn 0.713738 0.133144 -0.687641
vn 0.000000 0.187199 -0.982322
vn 0.000000 0.187199 -0.982322
vn 0.000000 0.000358 -1.000000
vn 0.000000 0.000358 -1.000000
vn 0.000000 0.225267 -0.974297
vn 0.000000 0.187199 -0.982322
vn 0.000000 0.187199 -0.982322
vn 0.000000 0.225267 -0.974297
vn 0.999993 0.001304 -0.003427
vn 0.999993 0.000877 -0.003663
vn 1.000000 0.000475 -0.000837
vn 1.000000 0.000404 -0.000713
vn 1.000000 0.000404 -0.000713
vn 1.000000 0.000475 -0.000837
vn 1.000000 0.000000 0.000000
vn 1.000000 0.000000 0.000000
vn -0.999993 0.000876 -0.003661
vn -0.999993 0.001303 -0.003425
vn -1.000000 0.000404 -0.000712
vn -1.000000 0.000474 -0.000836
vn -1.000000 0.000474 -0.000836
vn -1.000000 0.000404 -0.000712
vn -1.000000 0.000000 0.000000
vn -1.000000 0.000000 0.000000
vn -0.000001 0.999470 -0.032561
vn -0.000001 0.999470 -0.032561
vn -0.000001 0.999470 -0.032561
vn -0.000001 0.999470 -0.032561
vn -0.000002 0.887654 -0.460511
vn -0.000002 0.887654 -0.460511
vn -0.000002 0.887654 -0.460511
vn -0.000002 0.887654 -0.460511
f 39/1/1 37/4/2 13/3/3 14/2/4
f 10/5/5 42/8/6 40/7/7 9/6/8
f 11/9/9 45/12/10 43/11/11 12/10/12
f 36/13/13 34/16/14 20/15/15 19/14/16
f 15/17/17 48/20/18 46/19/19 16/18/20
f 17/21/21 27/24/22 25/23/23 18/22/24
f 33/25/25 31/28/26 21/27/27 22/26/28
f 30/29/29 28/32/30 23/31/31 24/30/32
f 41/33/33 42/8/34 10/5/35 1/34/36
f 38/35/37 39/1/38 14/2/39 3/36/40
f 44/37/41 45/12/42 11/9/43 2/38/44
f 47/39/45 48/20/46 15/17/47 5/40/48
f 32/41/49 33/25/50 22/26/51 6/42/52
f 35/43/53 36/13/54 19/14/55 7/44/56
f 29/45/57 30/29/58 24/30/59 8/46/60
f 26/47/61 27/24/62 17/21/63 4/48/64
f 8/46/65 24/30/66 27/24/67 26/47/68
f 25/23/69 27/24/70 24/30/71 23/31/72
f 6/42/73 22/26/74 30/29/75 29/45/76
f 21/27/77 28/32/78 30/29/79 22/26/80
f 7/44/81 19/14/82 33/25/83 32/41/84
f 20/15/85 31/28/86 33/25/87 19/14/88
f 3/49/89 14/50/90 36/13/91 35/43/92
f 13/51/93 34/16/94 36/13/95 14/50/96
f 1/34/97 10/5/98 39/1/99 38/35/100
f 9/6/101 37/4/102 39/1/103 10/5/104
f 2/38/105 11/9/106 42/8/107 41/33/108
f 40/7/109 42/8/110 11/9/111 12/10/112
f 5/40/113 15/17/114 45/12/115 44/37/116
f 43/11/117 45/12/118 15/17/119 16/18/120
f 4/48/121 17/21/122 48/20/123 47/39/124
f 46/19/125 48/20/126 17/21/127 18/22/128
f 37/4/129 50/53/130 49/52/131 13/3/132
f 40/7/133 52/55/134 51/54/135 9/6/136
f 43/11/137 54/57/138 53/56/139 12/10/140
f 34/16/141 56/59/142 55/58/143 20/15/144
f 46/19/145 58/61/146 57/60/147 16/18/148
f 25/23/149 60/63/150 59/62/151 18/22/152
f 31/28/153 62/65/154 61/64/155 21/27/156
f 28/32/157 64/67/158 63/66/159 23/31/160
f 23/31/161 63/66/162 60/63/163 25/23/164
f 21/27/165 61/64/166 64/67/167 28/32/168
f 20/15/169 55/58/170 62/65/171 31/28/172
f 13/51/173 49/68/174 56/59/175 34/16/176
f 9/6/177 51/54/178 50/53/179 37/4/180
f 12/10/181 53/56/182 52/55/183 40/7/184
f 16/18/185 57/60/186 54/57/187 43/11/188
f 18/22/189 59/62/190 58/61/191 46/19/192
f 50/53/193 66/70/194 65/69/195 49/52/196
f 52/55/197 68/72/198 67/71/199 51/54/200
f 54/57/201 70/74/202 69/73/203 53/56/204
f 56/59/205 72/76/206 71/75/207 55/58/208
f 58/61/209 74/78/210 73/77/211 57/60/212
f 60/63/213 76/80/214 75/79/215 59/62/216
f 62/65/217 78/82/218 77/81/219 61/64/220
f 64/67/221 80/84/222 79/83/223 63/66/224
f 63/66/225 79/83/226 76/80/227 60/63/228
f 61/64/229 77/81/230 80/84/231 64/67/232
f 55/58/233 71/75/234 78/82/235 62/65/236
f 49/68/237 65/85/238 72/76/239 56/59/240
f 51/54/241 67/71/242 66/70/243 50/53/244
f 53/56/245 69/73/246 68/72/247 52/55/248
f 57/60/249 73/77/250 70/74/251 54/57/252
f 59/62/253 75/79/254 74/78/255 58/61/256
f 84/86/257 82/87/258 87/88/259 88/89/260 92/90/261 91/91/262
f 83/92/263 81/93/264 86/94/265 85/95/266
f 85/95/267 86/94/268 82/96/269 84/97/270
f 87/98/271 90/99/272 89/100/273 88/89/274
f 90/99/275 96/101/276 95/102/277 89/100/278
f 92/90/279 93/103/280 94/104/281 91/105/282
f 93/103/283 98/106/284 97/107/285 94/104/286
f 89/100/287 93/103/288 92/90/289 88/89/290
f 98/106/291 93/103/292 89/100/293 95/102/294
f 97/107/295 83/92/296 85/95/297 94/104/298
f 94/104/299 85/95/300 84/97/301 91/105/302
f 81/108/303 96/101/304 90/99/305 86/109/306
f 86/109/307 90/99/308 87/98/309 82/110/310
f 81/111/311 83/112/312 97/113/313 96/114/314
f 96/114/315 97/113/316 98/106/317 95/102/318
